<?xml version="1.0" encoding="UTF-8" standalone="no"?>
<!-- Created with Inkscape (http://www.inkscape.org/) -->

<svg
   xmlns:dc="http://purl.org/dc/elements/1.1/"
   xmlns:cc="http://creativecommons.org/ns#"
   xmlns:rdf="http://www.w3.org/1999/02/22-rdf-syntax-ns#"
   xmlns:svg="http://www.w3.org/2000/svg"
   xmlns="http://www.w3.org/2000/svg"
   xmlns:sodipodi="http://sodipodi.sourceforge.net/DTD/sodipodi-0.dtd"
   xmlns:inkscape="http://www.inkscape.org/namespaces/inkscape"
   width="1078.14"
   height="285.47351"
   id="svg2"
   version="1.1"
   inkscape:version="0.91 r13725"
   sodipodi:docname="logo4.svg">
  <defs
     id="defs4" />
  <sodipodi:namedview
     id="base"
     pagecolor="#ffffff"
     bordercolor="#666666"
     borderopacity="1.0"
     inkscape:pageopacity="0.0"
     inkscape:pageshadow="2"
     inkscape:zoom="0.7"
     inkscape:cx="479.08022"
     inkscape:cy="9.2643634"
     inkscape:document-units="px"
     inkscape:current-layer="layer1"
     showgrid="false"
     fit-margin-top="10"
     fit-margin-left="10"
     fit-margin-right="10"
     fit-margin-bottom="10"
     inkscape:window-width="1680"
     inkscape:window-height="987"
     inkscape:window-x="-8"
     inkscape:window-y="-8"
     inkscape:window-maximized="1">
    <inkscape:grid
       type="xygrid"
       id="grid3767"
       empspacing="5"
       visible="true"
       enabled="true"
       snapvisiblegridlinesonly="true"
       originx="369.33305px"
       originy="-737.09217px" />
  </sodipodi:namedview>
  <metadata
     id="metadata7">
    <rdf:RDF>
      <cc:Work
         rdf:about="">
        <dc:format>image/svg+xml</dc:format>
        <dc:type
           rdf:resource="http://purl.org/dc/dcmitype/StillImage" />
        <dc:title></dc:title>
      </cc:Work>
    </rdf:RDF>
  </metadata>
  <g
     inkscape:label="Capa 1"
     inkscape:groupmode="layer"
     id="layer1"
     transform="translate(369.33305,-29.796463)">
    <g
       id="g3756"
       style="stroke:#000000;stroke-opacity:1">
      <g
         style="font-style:normal;font-variant:normal;font-weight:bold;font-stretch:normal;font-size:201.36694336px;line-height:125%;font-family:Gravity;-inkscape-font-specification:'Gravity Bold';text-align:start;letter-spacing:0px;word-spacing:0px;writing-mode:lr-tb;text-anchor:start;fill:#ffffff;fill-opacity:1;stroke:none;stroke-opacity:1"
         id="text3763">
        <path
           sodipodi:type="inkscape:offset"
           inkscape:radius="0"
           inkscape:original="M 355.48047 133.09961 C 349.44995 133.09961 343.55153 133.8858 337.7832 135.45898 C 332.08043 137.03216 326.86798 139.42481 322.14844 142.63672 C 317.4289 145.84863 313.36559 149.87984 309.95703 154.73047 C 306.54848 159.58111 304.15583 165.28493 302.7793 171.83984 C 302.58265 172.88863 302.58265 173.741 302.7793 174.39648 C 303.0415 175.05198 303.36843 175.54335 303.76172 175.87109 C 304.22057 176.19884 304.746 176.4275 305.33594 176.55859 C 305.92588 176.68969 306.44936 176.75586 306.9082 176.75586 L 321.46094 176.75586 C 322.37862 176.75586 323.16482 176.29659 323.82031 175.37891 C 324.4758 174.46122 324.93507 173.51058 325.19727 172.52734 C 325.85276 169.18434 327.13033 166.26821 329.03125 163.77734 C 330.93218 161.28648 333.19444 159.22076 335.81641 157.58203 C 338.43837 155.87775 341.22412 154.63229 344.17383 153.8457 C 347.18909 152.99356 350.13927 152.56836 353.02344 152.56836 C 356.43199 152.56836 359.87355 152.96145 363.34766 153.74805 C 366.88731 154.53463 370.06616 155.87837 372.88477 157.7793 C 375.76893 159.61467 378.09541 162.10559 379.86523 165.25195 C 381.70061 168.39831 382.61914 172.29914 382.61914 176.95312 C 382.61914 180.36168 381.50406 183.70301 379.27539 186.98047 C 377.11226 190.25792 374.16208 193.53699 370.42578 196.81445 C 366.75503 200.02636 362.4611 203.23731 357.54492 206.44922 C 352.62874 209.59558 347.45035 212.77442 342.00977 215.98633 C 340.82989 216.70737 340.24023 217.72418 340.24023 219.03516 L 339.84766 234.17578 C 339.84766 235.22457 340.27286 236.1752 341.125 237.02734 C 342.04269 237.87948 343.12566 238.30664 344.37109 238.30664 L 359.11914 238.30664 C 360.16793 238.24109 361.11857 237.81394 361.9707 237.02734 C 362.82284 236.1752 363.24805 235.22457 363.24805 234.17578 L 363.05273 227.09766 C 363.05273 226.37662 363.37966 225.81908 364.03516 225.42578 C 368.4925 222.73827 373.01508 219.85424 377.60352 216.77344 C 382.19196 213.69263 386.35354 210.25107 390.08984 206.44922 C 393.82614 202.58182 396.8746 198.28789 399.23438 193.56836 C 401.59414 188.84882 402.77539 183.54004 402.77539 177.64062 C 402.77539 170.56132 401.49587 164.26785 398.93945 158.76172 C 396.38303 153.19005 392.90937 148.53708 388.51758 144.80078 C 384.19134 140.99893 379.17738 138.11491 373.47461 136.14844 C 367.77183 134.11642 361.77318 133.09961 355.48047 133.09961 z M 342.00977 257.08594 C 340.96098 257.08594 340.01034 257.51309 339.1582 258.36523 C 338.30607 259.15182 337.88086 260.0684 337.88086 261.11719 L 337.68359 275.86523 C 337.68359 276.97957 338.11075 277.93021 338.96289 278.7168 C 339.88058 279.50339 340.79716 279.89648 341.71484 279.89648 L 361.28125 279.89648 C 362.33004 279.89648 363.28068 279.50339 364.13281 278.7168 C 365.05051 277.93021 365.50977 276.97957 365.50977 275.86523 L 365.21484 261.11719 C 365.08374 260.0684 364.62448 259.15182 363.83789 258.36523 C 363.0513 257.51309 362.10066 257.08594 360.98633 257.08594 L 342.00977 257.08594 z "
           id="path3368"
           d="m 355.48047,133.09961 c -6.03052,0 -11.92894,0.78619 -17.69727,2.35937 -5.70277,1.57318 -10.91522,3.96583 -15.63476,7.17774 -4.71954,3.21191 -8.78285,7.24312 -12.19141,12.09375 -3.40855,4.85064 -5.8012,10.55446 -7.17773,17.10937 -0.19665,1.04879 -0.19665,1.90116 0,2.55664 0.2622,0.6555 0.58913,1.14687 0.98242,1.47461 0.45885,0.32775 0.98428,0.55641 1.57422,0.6875 0.58994,0.1311 1.11342,0.19727 1.57226,0.19727 l 14.55274,0 c 0.91768,0 1.70388,-0.45927 2.35937,-1.37695 0.65549,-0.91769 1.11476,-1.86833 1.37696,-2.85157 0.65549,-3.343 1.93306,-6.25913 3.83398,-8.75 1.90093,-2.49086 4.16319,-4.55658 6.78516,-6.19531 2.62196,-1.70428 5.40771,-2.94974 8.35742,-3.73633 3.01526,-0.85214 5.96544,-1.27734 8.84961,-1.27734 3.40855,0 6.85011,0.39309 10.32422,1.17969 3.53965,0.78658 6.7185,2.13032 9.53711,4.03125 2.88416,1.83537 5.21064,4.32629 6.98046,7.47265 1.83538,3.14636 2.75391,7.04719 2.75391,11.70117 0,3.40856 -1.11508,6.74989 -3.34375,10.02735 -2.16313,3.27745 -5.11331,6.55652 -8.84961,9.83398 -3.67075,3.21191 -7.96468,6.42286 -12.88086,9.63477 -4.91618,3.14636 -10.09457,6.3252 -15.53515,9.53711 -1.17988,0.72104 -1.76954,1.73785 -1.76954,3.04883 l -0.39257,15.14062 c 0,1.04879 0.4252,1.99942 1.27734,2.85156 0.91769,0.85214 2.00066,1.2793 3.24609,1.2793 l 14.74805,0 c 1.04879,-0.0655 1.99943,-0.4927 2.85156,-1.2793 0.85214,-0.85214 1.27735,-1.80277 1.27735,-2.85156 l -0.19532,-7.07812 c 0,-0.72104 0.32693,-1.27858 0.98243,-1.67188 4.45734,-2.68751 8.97992,-5.57154 13.56836,-8.65234 4.58844,-3.08081 8.75002,-6.52237 12.48632,-10.32422 3.7363,-3.8674 6.78476,-8.16133 9.14454,-12.88086 2.35976,-4.71954 3.54101,-10.02832 3.54101,-15.92774 0,-7.0793 -1.27952,-13.37277 -3.83594,-18.8789 -2.55642,-5.57167 -6.03008,-10.22464 -10.42187,-13.96094 -4.32624,-3.80185 -9.3402,-6.68587 -15.04297,-8.65234 -5.70278,-2.03202 -11.70143,-3.04883 -17.99414,-3.04883 z m -13.4707,123.98633 c -1.04879,0 -1.99943,0.42715 -2.85157,1.27929 -0.85213,0.78659 -1.27734,1.70317 -1.27734,2.75196 l -0.19727,14.74804 c 0,1.11434 0.42716,2.06498 1.2793,2.85157 0.91769,0.78659 1.83427,1.17968 2.75195,1.17968 l 19.56641,0 c 1.04879,0 1.99943,-0.39309 2.85156,-1.17968 0.9177,-0.78659 1.37696,-1.73723 1.37696,-2.85157 l -0.29493,-14.74804 c -0.1311,-1.04879 -0.59036,-1.96537 -1.37695,-2.75196 -0.78659,-0.85214 -1.73723,-1.27929 -2.85156,-1.27929 l -18.97656,0 z" />
      </g>
      <path
         transform="matrix(0.7515284,0,0,0.7515284,155.00992,-13.537521)"
         inkscape:transform-center-y="-39.706157"
         inkscape:transform-center-x="0.098744542"
         d="m 450,412.36218 -190,0 -190.262793,-0.45517 94.999993,-164.54482 95.52559,-164.544833 95,164.544823 z"
         inkscape:randomized="0"
         inkscape:rounded="0"
         inkscape:flatsided="false"
         sodipodi:arg2="1.5707963"
         sodipodi:arg1="0.52479577"
         sodipodi:r2="110"
         sodipodi:r1="219.54498"
         sodipodi:cy="302.36218"
         sodipodi:cx="260"
         sodipodi:sides="3"
         id="path3769"
         style="fill:none;stroke:#ffffff;stroke-width:23.70000076000000178;stroke-linecap:butt;stroke-linejoin:miter;stroke-miterlimit:4;stroke-opacity:1;stroke-dasharray:none"
         sodipodi:type="star" />
      <g
         style="font-style:normal;font-variant:normal;font-weight:normal;font-stretch:normal;font-size:216.29611206px;line-height:125%;font-family:Gravity;-inkscape-font-specification:Gravity;text-align:start;letter-spacing:0px;word-spacing:0px;writing-mode:lr-tb;text-anchor:start;fill:#ffffff;fill-opacity:1;stroke:none;stroke-opacity:1"
         id="text3771">
        <path
           sodipodi:type="inkscape:offset"
           inkscape:radius="0"
           inkscape:original="M -354.58008 148.37891 C -355.4954 148.37891 -356.27062 148.69444 -356.9043 149.32812 C -357.53798 149.8914 -357.85352 150.66662 -357.85352 151.65234 L -358.06641 166.01562 C -358.06641 167.00135 -357.74891 167.81163 -357.11523 168.44531 C -356.41115 169.07899 -355.5658 169.39453 -354.58008 169.39453 L -347.60938 169.39453 C -346.62365 169.39453 -345.81532 169.07899 -345.18164 168.44531 C -344.47755 167.81163 -344.125 167.00135 -344.125 166.01562 L -344.44141 151.75781 C -344.44141 150.77209 -344.7589 149.96181 -345.39258 149.32812 C -346.02626 148.69444 -346.79952 148.37891 -347.71484 148.37891 L -354.58008 148.37891 z M -316.98242 148.37891 C -317.96814 148.37891 -318.81348 148.69444 -319.51758 149.32812 C -320.15126 149.96181 -320.4668 150.77209 -320.4668 151.75781 L -321.52344 298.77148 C -321.52344 299.82762 -321.17088 300.70802 -320.4668 301.41211 C -319.7627 302.04579 -318.95438 302.36133 -318.03906 302.36133 L -308.5332 302.36133 C -307.54748 302.36133 -306.7372 302.04579 -306.10352 301.41211 C -305.46984 300.70802 -305.1543 299.86268 -305.1543 298.87695 L -306.20898 151.86328 C -306.20898 150.94797 -306.52648 150.13769 -307.16016 149.43359 C -307.79384 148.72951 -308.60412 148.37891 -309.58984 148.37891 L -316.98242 148.37891 z M -272.20117 148.37891 C -273.18689 148.37891 -274.03223 148.69444 -274.73633 149.32812 C -275.37001 149.9618 -275.6875 150.77209 -275.6875 151.75781 L -276.74414 298.77148 C -276.74414 299.82762 -276.39159 300.70802 -275.6875 301.41211 C -274.98341 302.04579 -274.17313 302.36133 -273.25781 302.36133 L -263.75391 302.36133 C -262.76818 302.36133 -261.9579 302.04579 -261.32422 301.41211 C -260.69054 300.70802 -260.37305 299.86268 -260.37305 298.87695 L -261.42969 151.86328 C -261.42969 150.94797 -261.74718 150.13769 -262.38086 149.43359 C -263.01454 148.72951 -263.82287 148.37891 -264.80859 148.37891 L -272.20117 148.37891 z M 62.380859 148.37891 C 61.465544 148.37891 60.690321 148.69444 60.056641 149.32812 C 59.422961 149.8914 59.107422 150.66662 59.107422 151.65234 L 58.896484 166.01562 C 58.896484 167.00134 59.212023 167.81163 59.845703 168.44531 C 60.549792 169.07899 61.395135 169.39453 62.380859 169.39453 L 69.351562 169.39453 C 70.337286 169.39453 71.14757 169.07899 71.78125 168.44531 C 72.485339 167.81163 72.835938 167.00134 72.835938 166.01562 L 72.519531 151.75781 C 72.519531 150.77209 72.203993 149.96181 71.570312 149.32812 C 70.936633 148.69445 70.16141 148.37891 69.246094 148.37891 L 62.380859 148.37891 z M 611.78125 148.37891 C 610.79553 148.37891 609.95019 148.69444 609.24609 149.32812 C 608.61241 149.9618 608.29688 150.77209 608.29688 151.75781 L 607.24023 298.77148 C 607.24023 299.82762 607.59279 300.70802 608.29688 301.41211 C 609.00097 302.04579 609.8093 302.36133 610.72461 302.36133 L 620.23047 302.36133 C 621.2162 302.36133 622.02648 302.04579 622.66016 301.41211 C 623.29384 300.70802 623.60938 299.86268 623.60938 298.87695 L 623.39844 263.70703 C 623.39844 263.07335 623.61075 262.5455 624.0332 262.12305 L 637.97461 248.81641 C 638.46747 248.32355 638.99532 248.07617 639.55859 248.07617 C 640.19227 248.07617 640.72012 248.35861 641.14258 248.92188 L 681.06445 300.77734 C 681.76854 301.83348 682.75412 302.36133 684.02148 302.36133 L 695.2168 302.36133 C 695.92088 302.36133 696.55391 302.18602 697.11719 301.83398 C 697.68045 301.48194 698.10313 301.02421 698.38477 300.46094 C 698.6664 299.89767 698.77158 299.2997 698.70117 298.66602 C 698.63076 298.03234 698.34833 297.3993 697.85547 296.76562 L 650.96484 239.09961 C 650.33116 238.04348 650.36623 237.05789 651.07031 236.14258 L 691.94141 196.74805 C 692.43427 196.25518 692.75176 195.69227 692.89258 195.05859 C 693.0334 194.35451 692.99834 193.72148 692.78711 193.1582 C 692.57588 192.52452 692.18827 191.99667 691.625 191.57422 C 691.13214 191.15177 690.46405 190.93945 689.61914 190.93945 L 680.95898 190.93945 C 679.97326 190.93945 679.16298 191.25694 678.5293 191.89062 L 626.67383 237.83203 C 626.04015 238.3249 625.29998 238.50215 624.45508 238.36133 C 623.61017 238.1501 623.1875 237.51512 623.1875 236.45898 L 622.55469 151.86328 C 622.55469 150.94797 622.2372 150.13769 621.60352 149.43359 C 620.96984 148.72951 620.15955 148.37891 619.17383 148.37891 L 611.78125 148.37891 z M -67.523438 188.82812 C -75.409233 188.82812 -82.520621 190.51686 -88.857422 193.89648 C -95.123813 197.2057 -100.54451 201.60772 -105.12109 207.09961 C -105.68436 207.66288 -106.38947 207.80312 -107.23438 207.52148 C -108.07928 207.16944 -108.50195 206.57147 -108.50195 205.72656 L -108.60742 194.42578 C -108.60742 193.44006 -108.95998 192.62977 -109.66406 191.99609 C -110.29774 191.292 -111.10607 190.93945 -112.0918 190.93945 L -120.01367 190.93945 C -120.99939 190.93945 -121.84473 191.25694 -122.54883 191.89062 C -123.18251 192.5243 -123.49805 193.36965 -123.49805 194.42578 L -124.23828 298.77148 C -124.23828 299.82762 -123.88573 300.70802 -123.18164 301.41211 C -122.47755 302.04579 -121.66727 302.36133 -120.75195 302.36133 L -111.24805 302.36133 C -110.26232 302.36133 -109.45204 302.04579 -108.81836 301.41211 C -108.18468 300.70802 -107.86719 299.86268 -107.86719 298.87695 L -108.29102 242.37305 C -108.29102 237.23319 -107.23336 232.30528 -105.12109 227.58789 C -103.00883 222.80008 -100.26439 218.61038 -96.884766 215.01953 C -93.505139 211.35827 -89.703049 208.47164 -85.478516 206.35938 C -81.253982 204.1767 -77.064281 203.08594 -72.910156 203.08594 C -69.600938 203.08594 -66.572119 203.78909 -63.826172 205.19727 C -61.080225 206.53504 -58.758462 208.36596 -56.857422 210.68945 C -54.885973 213.01295 -53.370586 215.75933 -52.314453 218.92773 C -51.25832 222.02572 -50.730469 225.33502 -50.730469 228.85547 L -51.259766 298.77148 C -51.259766 299.82762 -50.907214 300.70802 -50.203125 301.41211 C -49.499036 302.04579 -48.688753 302.36133 -47.773438 302.36133 L -38.267578 302.36133 C -37.281853 302.36133 -36.473524 302.04579 -35.839844 301.41211 C -35.206164 300.70802 -34.888672 299.86268 -34.888672 298.87695 L -35.310547 242.26758 C -35.310547 238.74714 -34.817755 235.33266 -33.832031 232.02344 C -32.775898 228.71422 -31.402705 225.61723 -29.712891 222.73047 C -28.023077 219.7733 -26.086972 217.09703 -23.904297 214.70312 C -21.651212 212.30922 -19.364509 210.26794 -17.041016 208.57812 C -14.647114 206.81791 -12.288337 205.47977 -9.9648438 204.56445 C -7.6413504 203.57873 -5.4929333 203.08594 -3.5214844 203.08594 C -0.28267537 203.08594 2.6740716 203.68391 5.3496094 204.88086 C 8.0251472 206.00741 10.313804 207.69809 12.214844 209.95117 C 14.186292 212.13385 15.664666 214.80816 16.650391 217.97656 C 17.706524 221.14496 18.234375 224.73669 18.234375 228.75 L 17.707031 298.77148 C 17.707031 299.82762 18.059583 300.70802 18.763672 301.41211 C 19.467761 302.04579 20.276091 302.36133 21.191406 302.36133 L 30.697266 302.36133 C 31.68299 302.36133 32.493273 302.04579 33.126953 301.41211 C 33.760633 300.70802 34.076172 299.86268 34.076172 298.87695 L 33.548828 220.19531 C 33.548828 215.54833 32.668426 211.32356 30.908203 207.52148 C 29.21839 203.64899 26.929733 200.3397 24.042969 197.59375 C 21.226613 194.7774 17.917314 192.62898 14.115234 191.15039 C 10.313154 189.6014 6.3007053 188.82812 2.0761719 188.82812 C -6.0208505 188.82812 -13.202359 190.4818 -19.46875 193.79102 C -25.735141 197.02983 -31.015605 201.35977 -35.310547 206.78125 C -36.085045 207.41493 -36.790148 207.6623 -37.423828 207.52148 C -38.057508 207.38066 -38.550299 206.99305 -38.902344 206.35938 C -40.099294 203.82466 -41.682848 201.50094 -43.654297 199.38867 C -45.555337 197.206 -47.738814 195.34002 -50.203125 193.79102 C -52.667436 192.24202 -55.378763 191.04608 -58.335938 190.20117 C -61.222702 189.28586 -64.284628 188.82812 -67.523438 188.82812 z M 155.42578 188.82812 C 147.32876 188.82812 140.11219 190.51686 133.77539 193.89648 C 127.43859 197.2057 121.98283 201.60772 117.40625 207.09961 C 116.84298 207.66288 116.13788 207.80312 115.29297 207.52148 C 114.44806 207.16944 114.02539 206.57147 114.02539 205.72656 L 113.91992 194.42578 C 113.91992 193.44006 113.56737 192.62977 112.86328 191.99609 C 112.2296 191.292 111.42127 190.93945 110.43555 190.93945 L 102.51367 190.93945 C 101.52795 190.93945 100.68261 191.25694 99.978516 191.89062 C 99.344836 192.5243 99.029297 193.36965 99.029297 194.42578 L 98.289062 298.77148 C 98.289062 299.82762 98.641614 300.70802 99.345703 301.41211 C 100.04979 302.04579 100.86008 302.36133 101.77539 302.36133 L 111.2793 302.36133 C 112.26502 302.36133 113.0753 302.04579 113.70898 301.41211 C 114.34266 300.70802 114.66016 299.86268 114.66016 298.87695 L 114.23633 242.37305 C 114.23633 237.16279 115.29398 232.19982 117.40625 227.48242 C 119.58893 222.69462 122.40544 218.50492 125.85547 214.91406 C 129.3055 211.32321 133.14265 208.47164 137.36719 206.35938 C 141.59172 204.1767 145.7444 203.08594 149.82812 203.08594 C 153.06693 203.08594 156.02563 203.68391 158.70117 204.88086 C 161.44712 206.00741 163.76888 207.69809 165.66992 209.95117 C 167.64137 212.13385 169.1217 214.80816 170.10742 217.97656 C 171.16356 221.14496 171.69141 224.73669 171.69141 228.75 L 171.26758 298.77148 C 171.26758 299.82762 171.62013 300.70802 172.32422 301.41211 C 173.02831 302.04579 173.83859 302.36133 174.75391 302.36133 L 184.25977 302.36133 C 185.24549 302.36133 186.05382 302.04579 186.6875 301.41211 C 187.32118 300.70802 187.63867 299.86268 187.63867 298.87695 L 187.10938 220.19531 C 187.10938 215.54833 186.23093 211.32356 184.4707 207.52148 C 182.78089 203.64899 180.49224 200.3397 177.60547 197.59375 C 174.71871 194.7774 171.33929 192.62898 167.4668 191.15039 C 163.66472 189.6014 159.65031 188.82812 155.42578 188.82812 z M 541.44336 188.82812 C 536.37392 188.89853 531.51613 189.60169 526.86914 190.93945 C 522.22215 192.20681 518.13763 194.14291 514.61719 196.74805 C 511.16715 199.28277 508.3857 202.48689 506.27344 206.35938 C 504.23158 210.16146 503.21094 214.59658 503.21094 219.66602 C 503.21094 224.66505 504.16145 228.85475 506.0625 232.23438 C 508.03395 235.614 510.60308 238.50063 513.77148 240.89453 C 516.93988 243.21802 520.53162 245.15413 524.54492 246.70312 C 528.62864 248.18171 532.78328 249.51984 537.00781 250.7168 C 541.23235 251.84334 545.34997 252.97111 549.36328 254.09766 C 553.447 255.15379 557.07379 256.41985 560.24219 257.89844 C 563.41059 259.30661 565.94466 261.06742 567.8457 263.17969 C 569.81715 265.29196 570.80273 267.93316 570.80273 271.10156 C 570.80273 273.84751 570.06452 276.31147 568.58594 278.49414 C 567.17776 280.67681 565.2066 282.5428 562.67188 284.0918 C 560.20757 285.57038 557.32094 286.73127 554.01172 287.57617 C 550.7025 288.35067 547.21595 288.73828 543.55469 288.73828 C 538.69647 288.73828 534.54378 288.10525 531.09375 286.83789 C 527.71412 285.57053 524.86256 284.05514 522.53906 282.29492 C 520.21557 280.46429 518.34959 278.56324 516.94141 276.5918 C 515.53323 274.62035 514.40545 272.93162 513.56055 271.52344 C 513.20851 270.88976 512.78584 270.36191 512.29297 269.93945 C 511.80011 269.44659 511.13202 269.19922 510.28711 269.19922 L 499.9375 269.19922 C 498.31809 269.19922 497.36757 269.48166 497.08594 270.04492 C 496.87471 270.6082 496.97989 271.62884 497.40234 273.10742 C 498.5993 277.12073 500.5354 281.028 503.21094 284.83008 C 505.88648 288.63216 509.26589 292.01158 513.34961 294.96875 C 517.43332 297.85552 522.15088 300.17923 527.50195 301.93945 C 532.85303 303.69967 538.76848 304.58008 545.24609 304.58008 C 551.01963 304.58008 556.44033 303.83991 561.50977 302.36133 C 566.57921 300.88274 570.97927 298.73628 574.71094 295.91992 C 578.44261 293.03316 581.39936 289.47649 583.58203 285.25195 C 585.76471 281.02742 586.85742 276.20468 586.85742 270.7832 C 586.85742 265.57294 585.87184 261.20795 583.90039 257.6875 C 581.99935 254.16705 579.46332 251.21031 576.29492 248.81641 C 573.12652 246.35209 569.50168 244.38093 565.41797 242.90234 C 561.40466 241.42376 557.28508 240.12068 553.06055 238.99414 C 548.83601 237.79719 544.68137 236.70642 540.59766 235.7207 C 536.58435 234.66457 532.99457 233.43162 529.82617 232.02344 C 526.65777 230.61526 524.08669 228.85445 522.11523 226.74219 C 520.21419 224.62992 519.26367 221.9556 519.26367 218.7168 C 519.26367 216.3229 519.82658 214.17448 520.95312 212.27344 C 522.07966 210.30198 523.66517 208.64831 525.70703 207.31055 C 527.74888 205.90237 530.17778 204.84666 532.99414 204.14258 C 535.81049 203.43849 538.9445 203.08594 542.39453 203.08594 C 546.47825 203.08594 549.92779 203.57873 552.74414 204.56445 C 555.56049 205.47977 557.91927 206.67571 559.82031 208.1543 C 561.72135 209.56247 563.26984 211.14798 564.4668 212.9082 C 565.66375 214.66842 566.71945 216.3221 567.63477 217.87109 C 567.98681 218.50477 568.37442 218.99756 568.79688 219.34961 C 569.21933 219.63124 569.88742 219.77344 570.80273 219.77344 L 579.67578 219.77344 C 580.80232 219.77344 581.68077 219.56113 582.31445 219.13867 C 583.01855 218.64581 583.26591 217.62517 583.05469 216.07617 C 582.91387 215.02004 582.45614 213.61179 581.68164 211.85156 C 580.90715 210.02094 579.78132 208.08483 578.30273 206.04297 C 576.89455 204.00111 575.09869 201.95982 572.91602 199.91797 C 570.73334 197.8057 568.12719 195.93972 565.09961 194.32031 C 562.07203 192.6305 558.58743 191.29237 554.64453 190.30664 C 550.70163 189.25051 546.30157 188.75771 541.44336 188.82812 z M -355.21484 190.93945 C -356.20057 190.93945 -357.0089 191.25694 -357.64258 191.89062 C -358.27626 192.5243 -358.59375 193.33459 -358.59375 194.32031 L -359.33398 298.77148 C -359.33398 299.82762 -358.98143 300.70802 -358.27734 301.41211 C -357.57326 302.04579 -356.76298 302.36133 -355.84766 302.36133 L -346.3418 302.36133 C -345.35608 302.36133 -344.54774 302.04579 -343.91406 301.41211 C -343.28038 300.70802 -342.96289 299.86268 -342.96289 298.87695 L -343.70312 194.42578 C -343.70313 193.36965 -344.05373 192.52431 -344.75781 191.89062 C -345.39149 191.25694 -346.20177 190.93945 -347.1875 190.93945 L -355.21484 190.93945 z M -232.49219 190.93945 C -233.4075 190.93945 -234.18077 191.25694 -234.81445 191.89062 C -235.44813 192.5243 -235.76562 193.33459 -235.76562 194.32031 L -236.29297 263.17969 C -236.36338 268.67159 -235.62517 273.91699 -234.07617 278.91602 C -232.45677 283.91505 -230.09799 288.31511 -227 292.11719 C -223.8316 295.91927 -219.88732 298.94809 -215.16992 301.20117 C -210.45253 303.45425 -204.96171 304.58008 -198.69531 304.58008 C -192.28811 304.58008 -186.40967 303.1017 -181.05859 300.14453 C -175.70752 297.18736 -171.20033 293.45539 -167.53906 288.94922 C -166.9758 288.17472 -166.27264 287.89229 -165.42773 288.10352 C -164.58283 288.31474 -164.16016 289.01984 -164.16016 290.2168 L -164.16016 298.77148 C -164.16016 299.82762 -163.80761 300.70802 -163.10352 301.41211 C -162.39943 302.04579 -161.58914 302.36133 -160.67383 302.36133 L -151.16992 302.36133 C -150.1842 302.36133 -149.37391 302.04579 -148.74023 301.41211 C -148.10655 300.70802 -147.78906 299.86268 -147.78906 298.87695 L -148.5293 194.53125 C -148.5293 193.47512 -148.84484 192.62977 -149.47852 191.99609 C -150.1122 191.292 -150.92248 190.93945 -151.9082 190.93945 L -160.04102 190.93945 C -161.02674 190.93945 -161.83702 191.292 -162.4707 191.99609 C -163.10438 192.62977 -163.41992 193.44006 -163.41992 194.42578 L -163.8418 257.26562 C -163.8418 262.40547 -164.8644 266.94577 -166.90625 270.88867 C -168.94811 274.83157 -171.5523 278.14087 -174.7207 280.81641 C -177.8891 283.42154 -181.44577 285.3927 -185.38867 286.73047 C -189.26116 288.06824 -193.06325 288.73828 -196.79492 288.73828 C -200.17455 288.73828 -203.30659 288.17537 -206.19336 287.04883 C -209.00971 285.85187 -211.47367 284.16119 -213.58594 281.97852 C -215.6982 279.79584 -217.35383 277.12152 -218.55078 273.95312 C -219.74773 270.71431 -220.3457 267.01741 -220.3457 262.86328 L -220.87305 194.42578 C -220.87305 193.36965 -221.2256 192.52431 -221.92969 191.89062 C -222.56337 191.25695 -223.37365 190.93945 -224.35938 190.93945 L -232.49219 190.93945 z M 61.748047 190.93945 C 60.762323 190.93945 59.952039 191.25694 59.318359 191.89062 C 58.684679 192.52431 58.367188 193.33459 58.367188 194.32031 L 57.628906 298.77148 C 57.628906 299.82762 57.979504 300.70802 58.683594 301.41211 C 59.387682 302.04579 60.197966 302.36133 61.113281 302.36133 L 70.619141 302.36133 C 71.604865 302.36133 72.415148 302.04579 73.048828 301.41211 C 73.682508 300.70802 73.998047 299.86268 73.998047 298.87695 L 73.259766 194.42578 C 73.259766 193.36965 72.907214 192.52431 72.203125 191.89062 C 71.569445 191.25694 70.759162 190.93945 69.773438 190.93945 L 61.748047 190.93945 z "
           id="path3362"
           d="m -354.58008,148.37891 c -0.91532,0 -1.69054,0.31553 -2.32422,0.94921 -0.63368,0.56328 -0.94922,1.3385 -0.94922,2.32422 l -0.21289,14.36328 c 0,0.98573 0.3175,1.79601 0.95118,2.42969 0.70408,0.63368 1.54943,0.94922 2.53515,0.94922 l 6.9707,0 c 0.98573,0 1.79406,-0.31554 2.42774,-0.94922 0.70409,-0.63368 1.05664,-1.44396 1.05664,-2.42969 l -0.31641,-14.25781 c 0,-0.98572 -0.31749,-1.796 -0.95117,-2.42969 -0.63368,-0.63368 -1.40694,-0.94921 -2.32226,-0.94921 l -6.86524,0 z m 37.59766,0 c -0.98572,0 -1.83106,0.31553 -2.53516,0.94921 -0.63368,0.63369 -0.94922,1.44397 -0.94922,2.42969 l -1.05664,147.01367 c 0,1.05614 0.35256,1.93654 1.05664,2.64063 0.7041,0.63368 1.51242,0.94922 2.42774,0.94922 l 9.50586,0 c 0.98572,0 1.796,-0.31554 2.42968,-0.94922 0.63368,-0.70409 0.94922,-1.54943 0.94922,-2.53516 l -1.05468,-147.01367 c 0,-0.91531 -0.3175,-1.72559 -0.95118,-2.42969 -0.63368,-0.70408 -1.44396,-1.05468 -2.42968,-1.05468 l -7.39258,0 z m 44.78125,0 c -0.98572,0 -1.83106,0.31553 -2.53516,0.94921 -0.63368,0.63368 -0.95117,1.44397 -0.95117,2.42969 l -1.05664,147.01367 c 0,1.05614 0.35255,1.93654 1.05664,2.64063 0.70409,0.63368 1.51437,0.94922 2.42969,0.94922 l 9.5039,0 c 0.98573,0 1.79601,-0.31554 2.42969,-0.94922 0.63368,-0.70409 0.95117,-1.54943 0.95117,-2.53516 l -1.05664,-147.01367 c 0,-0.91531 -0.31749,-1.72559 -0.95117,-2.42969 -0.63368,-0.70408 -1.44201,-1.05468 -2.42773,-1.05468 l -7.39258,0 z m 334.582029,0 c -0.915315,0 -1.690538,0.31553 -2.324218,0.94921 -0.63368,0.56328 -0.949219,1.3385 -0.949219,2.32422 l -0.210938,14.36328 c 0,0.98572 0.315539,1.79601 0.949219,2.42969 0.704089,0.63368 1.549432,0.94922 2.535156,0.94922 l 6.970703,0 c 0.985724,0 1.796008,-0.31554 2.429688,-0.94922 0.704089,-0.63368 1.054688,-1.44397 1.054688,-2.42969 l -0.316407,-14.25781 c 0,-0.98572 -0.315538,-1.796 -0.949219,-2.42969 -0.633679,-0.63367 -1.408902,-0.94921 -2.324218,-0.94921 l -6.865235,0 z m 549.400391,0 c -0.98572,0 -1.83106,0.31553 -2.53516,0.94921 -0.63368,0.63368 -0.94921,1.44397 -0.94921,2.42969 l -1.05665,147.01367 c 0,1.05614 0.35256,1.93654 1.05665,2.64063 0.70409,0.63368 1.51242,0.94922 2.42773,0.94922 l 9.50586,0 c 0.98573,0 1.79601,-0.31554 2.42969,-0.94922 0.63368,-0.70409 0.94922,-1.54943 0.94922,-2.53516 l -0.21094,-35.16992 c 0,-0.63368 0.21231,-1.16153 0.63476,-1.58398 l 13.94141,-13.30664 c 0.49286,-0.49286 1.02071,-0.74024 1.58398,-0.74024 0.63368,0 1.16153,0.28244 1.58399,0.84571 l 39.92187,51.85546 c 0.70409,1.05614 1.68967,1.58399 2.95703,1.58399 l 11.19532,0 c 0.70408,0 1.33711,-0.17531 1.90039,-0.52735 0.56326,-0.35204 0.98594,-0.80977 1.26758,-1.37304 0.28163,-0.56327 0.38681,-1.16124 0.3164,-1.79492 -0.0704,-0.63368 -0.35284,-1.26672 -0.8457,-1.9004 l -46.89063,-57.66601 c -0.63368,-1.05613 -0.59861,-2.04172 0.10547,-2.95703 l 40.8711,-39.39453 c 0.49286,-0.49287 0.81035,-1.05578 0.95117,-1.68946 0.14082,-0.70408 0.10576,-1.33711 -0.10547,-1.90039 -0.21123,-0.63368 -0.59884,-1.16153 -1.16211,-1.58398 -0.49286,-0.42245 -1.16095,-0.63477 -2.00586,-0.63477 l -8.66016,0 c -0.98572,0 -1.796,0.31749 -2.42968,0.95117 l -51.85547,45.94141 c -0.63368,0.49287 -1.37385,0.67012 -2.21875,0.5293 -0.84491,-0.21123 -1.26758,-0.84621 -1.26758,-1.90235 l -0.63281,-84.5957 c 0,-0.91531 -0.31749,-1.72559 -0.95117,-2.42969 -0.63368,-0.70408 -1.44397,-1.05468 -2.42969,-1.05468 l -7.39258,0 z m -679.304688,40.44921 c -7.885795,0 -14.997183,1.68874 -21.333984,5.06836 -6.266391,3.30922 -11.687088,7.71124 -16.263668,13.20313 -0.56327,0.56327 -1.26838,0.70351 -2.11329,0.42187 -0.8449,-0.35204 -1.26757,-0.95001 -1.26757,-1.79492 l -0.10547,-11.30078 c 0,-0.98572 -0.35256,-1.79601 -1.05664,-2.42969 -0.63368,-0.70409 -1.44201,-1.05664 -2.42774,-1.05664 l -7.92187,0 c -0.98572,0 -1.83106,0.31749 -2.53516,0.95117 -0.63368,0.63368 -0.94922,1.47903 -0.94922,2.53516 l -0.74023,104.3457 c 0,1.05614 0.35255,1.93654 1.05664,2.64063 0.70409,0.63368 1.51437,0.94922 2.42969,0.94922 l 9.5039,0 c 0.98573,0 1.79601,-0.31554 2.42969,-0.94922 0.63368,-0.70409 0.95117,-1.54943 0.95117,-2.53516 l -0.42383,-56.5039 c 0,-5.13986 1.05766,-10.06777 3.16993,-14.78516 2.11226,-4.78781 4.8567,-8.97751 8.236324,-12.56836 3.379627,-3.66126 7.181717,-6.54789 11.40625,-8.66015 4.224534,-2.18268 8.414235,-3.27344 12.56836,-3.27344 3.309218,0 6.338037,0.70315 9.083984,2.11133 2.745947,1.33777 5.06771,3.16869 6.96875,5.49218 1.971449,2.3235 3.486836,5.06988 4.542969,8.23828 1.056133,3.09799 1.583984,6.40729 1.583984,9.92774 l -0.529297,69.91601 c 0,1.05614 0.352552,1.93654 1.056641,2.64063 0.704089,0.63368 1.514372,0.94922 2.429687,0.94922 l 9.50586,0 c 0.985725,0 1.794054,-0.31554 2.427734,-0.94922 0.63368,-0.70409 0.951172,-1.54943 0.951172,-2.53516 l -0.421875,-56.60937 c 0,-3.52044 0.492792,-6.93492 1.478516,-10.24414 1.056133,-3.30922 2.429326,-6.40621 4.11914,-9.29297 1.689814,-2.95717 3.625919,-5.63344 5.808594,-8.02735 2.253085,-2.3939 4.539788,-4.43518 6.863281,-6.125 2.393902,-1.76021 4.752679,-3.09835 7.0761722,-4.01367 2.3234934,-0.98572 4.4719105,-1.47851 6.4433594,-1.47851 3.23880903,0 6.195556,0.59797 8.8710938,1.79492 2.6755378,1.12655 4.9641946,2.81723 6.8652346,5.07031 1.971448,2.18268 3.449822,4.85699 4.435547,8.02539 1.056133,3.1684 1.583984,6.76013 1.583984,10.77344 l -0.527344,70.02148 c 0,1.05614 0.352552,1.93654 1.056641,2.64063 0.704089,0.63368 1.512419,0.94922 2.427734,0.94922 l 9.50586,0 c 0.985724,0 1.796007,-0.31554 2.429687,-0.94922 0.63368,-0.70409 0.949219,-1.54943 0.949219,-2.53516 l -0.527344,-78.68164 c 0,-4.64698 -0.880402,-8.87175 -2.640625,-12.67383 -1.689813,-3.87249 -3.97847,-7.18178 -6.865234,-9.92773 -2.816356,-2.81635 -6.125655,-4.96477 -9.927735,-6.44336 -3.80208,-1.54899 -7.8145287,-2.32227 -12.0390621,-2.32227 -8.0970224,0 -15.2785309,1.65368 -21.5449219,4.9629 -6.266391,3.23881 -11.546855,7.56875 -15.841797,12.99023 -0.774498,0.63368 -1.479601,0.88105 -2.113281,0.74023 -0.63368,-0.14082 -1.126471,-0.52843 -1.478516,-1.1621 -1.19695,-2.53472 -2.780504,-4.85844 -4.751953,-6.97071 -1.90104,-2.18267 -4.084517,-4.04865 -6.548828,-5.59765 -2.464311,-1.549 -5.175638,-2.74494 -8.132813,-3.58985 -2.886764,-0.91531 -5.94869,-1.37305 -9.1875,-1.37305 z m 222.949218,0 c -8.09702,0 -15.31359,1.68874 -21.65039,5.06836 -6.3368,3.30922 -11.79256,7.71124 -16.36914,13.20313 -0.56327,0.56327 -1.26837,0.70351 -2.11328,0.42187 -0.84491,-0.35204 -1.26758,-0.95001 -1.26758,-1.79492 l -0.10547,-11.30078 c 0,-0.98572 -0.35255,-1.79601 -1.05664,-2.42969 -0.63368,-0.70409 -1.44201,-1.05664 -2.42773,-1.05664 l -7.92188,0 c -0.98572,0 -1.83106,0.31749 -2.535154,0.95117 -0.63368,0.63368 -0.949219,1.47903 -0.949219,2.53516 l -0.740235,104.3457 c 0,1.05614 0.352552,1.93654 1.056641,2.64063 0.704087,0.63368 1.514377,0.94922 2.429687,0.94922 l 9.50391,0 c 0.98572,0 1.796,-0.31554 2.42968,-0.94922 0.63368,-0.70409 0.95118,-1.54943 0.95118,-2.53516 l -0.42383,-56.5039 c 0,-5.21026 1.05765,-10.17323 3.16992,-14.89063 2.18268,-4.7878 4.99919,-8.9775 8.44922,-12.56836 3.45003,-3.59085 7.28718,-6.44242 11.51172,-8.55468 4.22453,-2.18268 8.37721,-3.27344 12.46093,-3.27344 3.23881,0 6.19751,0.59797 8.87305,1.79492 2.74595,1.12655 5.06771,2.81723 6.96875,5.07031 1.97145,2.18268 3.45178,4.85699 4.4375,8.02539 1.05614,3.1684 1.58399,6.76013 1.58399,10.77344 l -0.42383,70.02148 c 0,1.05614 0.35255,1.93654 1.05664,2.64063 0.70409,0.63368 1.51437,0.94922 2.42969,0.94922 l 9.50586,0 c 0.98572,0 1.79405,-0.31554 2.42773,-0.94922 0.63368,-0.70409 0.95117,-1.54943 0.95117,-2.53516 l -0.52929,-78.68164 c 0,-4.64698 -0.87845,-8.87175 -2.63868,-12.67383 -1.68981,-3.87249 -3.97846,-7.18178 -6.86523,-9.92773 -2.88676,-2.81635 -6.26618,-4.96477 -10.13867,-6.44336 -3.80208,-1.54899 -7.81649,-2.32227 -12.04102,-2.32227 z m 386.01758,0 c -5.06944,0.0704 -9.92723,0.77357 -14.57422,2.11133 -4.64699,1.26736 -8.73151,3.20346 -12.25195,5.8086 -3.45004,2.53472 -6.23149,5.73884 -8.34375,9.61133 -2.04186,3.80208 -3.0625,8.2372 -3.0625,13.30664 0,4.99903 0.95051,9.18873 2.85156,12.56836 1.97145,3.37962 4.54058,6.26625 7.70898,8.66015 3.1684,2.32349 6.76014,4.2596 10.77344,5.80859 4.08372,1.47859 8.23836,2.81672 12.46289,4.01368 4.22454,1.12654 8.34216,2.25431 12.35547,3.38086 4.08372,1.05613 7.71051,2.32219 10.87891,3.80078 3.1684,1.40817 5.70247,3.16898 7.60351,5.28125 1.97145,2.11227 2.95703,4.75347 2.95703,7.92187 0,2.74595 -0.73821,5.20991 -2.21679,7.39258 -1.40818,2.18267 -3.37934,4.04866 -5.91406,5.59766 -2.46431,1.47858 -5.35094,2.63947 -8.66016,3.48437 -3.30922,0.7745 -6.79577,1.16211 -10.45703,1.16211 -4.85822,0 -9.01091,-0.63303 -12.46094,-1.90039 -3.37963,-1.26736 -6.23119,-2.78275 -8.55469,-4.54297 -2.32349,-1.83063 -4.18947,-3.73168 -5.59765,-5.70312 -1.40818,-1.97145 -2.53596,-3.66018 -3.38086,-5.06836 -0.35204,-0.63368 -0.77471,-1.16153 -1.26758,-1.58399 -0.49286,-0.49286 -1.16095,-0.74023 -2.00586,-0.74023 l -10.34961,0 c -1.61941,0 -2.56993,0.28244 -2.85156,0.8457 -0.21123,0.56328 -0.10605,1.58392 0.3164,3.0625 1.19696,4.01331 3.13306,7.92058 5.8086,11.72266 2.67554,3.80208 6.05495,7.1815 10.13867,10.13867 4.08371,2.88677 8.80127,5.21048 14.15234,6.9707 5.35108,1.76022 11.26653,2.64063 17.74414,2.64063 5.77354,0 11.19424,-0.74017 16.26368,-2.21875 5.06944,-1.47859 9.4695,-3.62505 13.20117,-6.44141 3.73167,-2.88676 6.68842,-6.44343 8.87109,-10.66797 2.18268,-4.22453 3.27539,-9.04727 3.27539,-14.46875 0,-5.21026 -0.98558,-9.57525 -2.95703,-13.0957 -1.90104,-3.52045 -4.43707,-6.47719 -7.60547,-8.87109 -3.1684,-2.46432 -6.79324,-4.43548 -10.87695,-5.91407 -4.01331,-1.47858 -8.13289,-2.78166 -12.35742,-3.9082 -4.22454,-1.19695 -8.37918,-2.28772 -12.46289,-3.27344 -4.01331,-1.05613 -7.60309,-2.28908 -10.77149,-3.69726 -3.1684,-1.40818 -5.73948,-3.16899 -7.71094,-5.28125 -1.90104,-2.11227 -2.85156,-4.78659 -2.85156,-8.02539 0,-2.3939 0.56291,-4.54232 1.68945,-6.44336 1.12654,-1.97146 2.71205,-3.62513 4.75391,-4.96289 2.04185,-1.40818 4.47075,-2.46389 7.28711,-3.16797 2.81635,-0.70409 5.95036,-1.05664 9.40039,-1.05664 4.08372,0 7.53326,0.49279 10.34961,1.47851 2.81635,0.91532 5.17513,2.11126 7.07617,3.58985 1.90104,1.40817 3.44953,2.99368 4.64649,4.7539 1.19695,1.76022 2.25265,3.4139 3.16797,4.96289 0.35204,0.63368 0.73965,1.12647 1.16211,1.47852 0.42245,0.28163 1.09054,0.42383 2.00585,0.42383 l 8.87305,0 c 1.12654,0 2.00499,-0.21231 2.63867,-0.63477 0.7041,-0.49286 0.95146,-1.5135 0.74024,-3.0625 -0.14082,-1.05613 -0.59855,-2.46438 -1.37305,-4.22461 -0.77449,-1.83062 -1.90032,-3.76673 -3.37891,-5.80859 -1.40818,-2.04186 -3.20404,-4.08315 -5.38671,-6.125 -2.18268,-2.11227 -4.78883,-3.97825 -7.81641,-5.59766 -3.02758,-1.68981 -6.51218,-3.02794 -10.45508,-4.01367 -3.9429,-1.05613 -8.34296,-1.54893 -13.20117,-1.47852 z m -896.6582,2.11133 c -0.98573,0 -1.79406,0.31749 -2.42774,0.95117 -0.63368,0.63368 -0.95117,1.44397 -0.95117,2.42969 l -0.74023,104.45117 c 0,1.05614 0.35255,1.93654 1.05664,2.64063 0.70408,0.63368 1.51436,0.94922 2.42968,0.94922 l 9.50586,0 c 0.98572,0 1.79406,-0.31554 2.42774,-0.94922 0.63368,-0.70409 0.95117,-1.54943 0.95117,-2.53516 l -0.74023,-104.45117 c -10e-6,-1.05613 -0.35061,-1.90147 -1.05469,-2.53516 -0.63368,-0.63368 -1.44396,-0.95117 -2.42969,-0.95117 l -8.02734,0 z m 122.72265,0 c -0.91531,0 -1.68858,0.31749 -2.32226,0.95117 -0.63368,0.63368 -0.95117,1.44397 -0.95117,2.42969 l -0.52735,68.85938 c -0.0704,5.4919 0.6678,10.7373 2.2168,15.73633 1.6194,4.99903 3.97818,9.39909 7.07617,13.20117 3.1684,3.80208 7.11268,6.8309 11.83008,9.08398 4.71739,2.25308 10.20821,3.37891 16.47461,3.37891 6.4072,0 12.28564,-1.47838 17.63672,-4.43555 5.35107,-2.95717 9.85826,-6.68914 13.51953,-11.19531 0.56326,-0.7745 1.26642,-1.05693 2.11133,-0.8457 0.8449,0.21122 1.26757,0.91632 1.26757,2.11328 l 0,8.55468 c 0,1.05614 0.35255,1.93654 1.05664,2.64063 0.70409,0.63368 1.51438,0.94922 2.42969,0.94922 l 9.50391,0 c 0.98572,0 1.79601,-0.31554 2.42969,-0.94922 0.63368,-0.70409 0.95117,-1.54943 0.95117,-2.53516 l -0.74024,-104.3457 c 0,-1.05613 -0.31554,-1.90148 -0.94922,-2.53516 -0.63368,-0.70409 -1.44396,-1.05664 -2.42968,-1.05664 l -8.13282,0 c -0.98572,0 -1.796,0.35255 -2.42968,1.05664 -0.63368,0.63368 -0.94922,1.44397 -0.94922,2.42969 l -0.42188,62.83984 c 0,5.13985 -1.0226,9.68015 -3.06445,13.62305 -2.04186,3.9429 -4.64605,7.2522 -7.81445,9.92774 -3.1684,2.60513 -6.72507,4.57629 -10.66797,5.91406 -3.87249,1.33777 -7.67458,2.00781 -11.40625,2.00781 -3.37963,0 -6.51167,-0.56291 -9.39844,-1.68945 -2.81635,-1.19696 -5.28031,-2.88764 -7.39258,-5.07031 -2.11226,-2.18268 -3.76789,-4.857 -4.96484,-8.0254 -1.19695,-3.23881 -1.79492,-6.93571 -1.79492,-11.08984 l -0.52735,-68.4375 c 0,-1.05613 -0.35255,-1.90147 -1.05664,-2.53516 -0.63368,-0.63367 -1.44396,-0.95117 -2.42969,-0.95117 l -8.13281,0 z m 294.240237,0 c -0.985724,0 -1.796008,0.31749 -2.429688,0.95117 -0.63368,0.63369 -0.951171,1.44397 -0.951171,2.42969 l -0.738282,104.45117 c 0,1.05614 0.350598,1.93654 1.054688,2.64063 0.704088,0.63368 1.514372,0.94922 2.429687,0.94922 l 9.50586,0 c 0.985724,0 1.796007,-0.31554 2.429687,-0.94922 0.63368,-0.70409 0.949219,-1.54943 0.949219,-2.53516 L 73.259766,194.42578 c 0,-1.05613 -0.352552,-1.90147 -1.056641,-2.53516 -0.63368,-0.63368 -1.443963,-0.95117 -2.429687,-0.95117 l -8.025391,0 z" />
      </g>
    </g>
  </g>
</svg>
